<?xml version="1.0" encoding="utf-8"?>
<!-- Generator: Adobe Illustrator 16.0.0, SVG Export Plug-In . SVG Version: 6.00 Build 0)  -->
<!DOCTYPE svg PUBLIC "-//W3C//DTD SVG 1.1//EN" "http://www.w3.org/Graphics/SVG/1.1/DTD/svg11.dtd">
<svg version="1.1" id="Réteg_1" xmlns="http://www.w3.org/2000/svg" xmlns:xlink="http://www.w3.org/1999/xlink" x="0px" y="0px"
	 width="20px" height="20px" viewBox="0 0 512 512" enable-background="new 0 0 512 512" xml:space="preserve">
<linearGradient id="SVGID_1_" gradientUnits="userSpaceOnUse" x1="2.8594" y1="153.9766" x2="276.4746" y2="153.9766">
	<stop  offset="0" style="stop-color:#797979"/>
	<stop  offset="0.2315" style="stop-color:#797979"/>
	<stop  offset="0.7727" style="stop-color:#666666"/>
	<stop  offset="0.9944" style="stop-color:#4F4F4F"/>
</linearGradient>
<path fill="url(#SVGID_1_)" d="M162.441,49.953c-37.05,0-50.133,11.283-63.984,33.852l-35.121,59.836l-0.418-0.729l-44.365,75.533
	C9.724,231.874,3.492,241,2.859,258H127.41l-0.25-2.107l69.74-113.875l79.574-0.739l-52.55-89.935L162.441,49.953z"/>
<polygon fill="#4F4F4F" points="254.188,51.847 223.925,51.222 276.475,141.031 306.395,140.845 "/>
<polygon fill="#4F4F4F" points="307.337,366.16 277.336,366.08 221.496,460.197 251.352,459.586 "/>
<linearGradient id="SVGID_2_" gradientUnits="userSpaceOnUse" x1="2.8062" y1="359.7969" x2="277.3359" y2="359.7969">
	<stop  offset="0" style="stop-color:#979797"/>
	<stop  offset="0.2315" style="stop-color:#979797"/>
	<stop  offset="0.7727" style="stop-color:#797979"/>
	<stop  offset="0.9944" style="stop-color:#666666"/>
</linearGradient>
<path fill="url(#SVGID_2_)" d="M191.178,366.797L127.41,258H2.859c-0.512,8,2.627,19.334,11.082,32.014l45.23,76.231l36.449,61.69
	c13.848,22.564,26.936,33.657,63.98,33.657l61.895-1.334l55.84-93.666L191.178,366.797z"/>
<linearGradient id="SVGID_3_" gradientUnits="userSpaceOnUse" x1="359.9268" y1="257.0781" x2="359.9268" y2="49.9058">
	<stop  offset="0" style="stop-color:#9D2877"/>
	<stop  offset="0.9944" style="stop-color:#DF0587"/>
</linearGradient>
<path fill="url(#SVGID_3_)" d="M416.729,83.78c-13.849-22.564-26.938-33.875-63.981-33.875l-86.07,1.849l118.504,205.324
	l67.994-111.194L416.729,83.78z"/>
<linearGradient id="SVGID_4_" gradientUnits="userSpaceOnUse" x1="357.0957" y1="461.3828" x2="357.0957" y2="257.0781">
	<stop  offset="0" style="stop-color:#00ACFD"/>
	<stop  offset="0.9944" style="stop-color:#0368B5"/>
</linearGradient>
<path fill="url(#SVGID_4_)" d="M413.895,427.507c-13.857,22.565-26.939,33.876-63.981,33.876l-86.07-1.846l121.339-202.459
	l65.166,108.324L413.895,427.507z"/>
<path fill="#543D97" d="M498.41,222.952l-45.234-77.068l-67.994,111.194l64.256,111.305l44.364-73.849
	C509.761,270.245,517.325,251.33,498.41,222.952z"/>
</svg>
